# xmcd CD database file
#
# Track frame offsets:
#	150
#	28238
#	49465
#	66941
#	87797
#	116482
#	147111
#	181877
#	197530
#	219131
#
# Disc length: 3289 seconds
#
# Revision: 0
# Processed by: cddbd v1.5.1PL0 Copyright (c) Steve Scherf et al.
# Submitted via: CDex 1.51
#
DISCID=8a0cd70a
DTITLE=Various Artist - Days Of Wine And Roses
DYEAR=1999
DGENRE=Jazz
TTITLE0=Toots Thielemans - Days Of Wine And Roses
TTITLE1=Roland Hanna - My Shining Hour
TTITLE2=Lee Konitz - Tangerine
TTITLE3=Carol Sloane - Baby, Don't You Quit Now
TTITLE4=David Liebman - Skylark
TTITLE5=Bud Shank - I'm Old Fashioned
TTITLE6=Gene Di Novi - Have A Heart
TTITLE7=Eddie Daniels - Emily
TTITLE8=Hector Martignon - Laura
TTITLE9=Shirley Scott - Autumn Leaves
EXTD=YEAR: 1999
EXTT0=
EXTT1=
EXTT2=
EXTT3=
EXTT4=
EXTT5=
EXTT6=
EXTT7=
EXTT8=
EXTT9=
PLAYORDER=
